PathFileType  4	(X/Y/Z) C:\Users\wagnerel85475\Documents\Thesis\opencap-core\Data\3375ffbc-daeb-4a43-b4f7-ac9899cd4c71\MarkerData\PreAugmentation
DataRate	CameraRate	NumFrames	NumMarkers	Units	OrigDataRate	OrigDataStartFrame	OrigNumFrames
60.0	60.0	14	20	m	60.0	481	641
Frame#	Time	Neck			RShoulder			RElbow			RWrist			LShoulder			LElbow			LWrist			midHip			RHip			RKnee			RAnkle			LHip			LKnee			LAnkle			LBigToe			LSmallToe			LHeel			RBigToe			RSmallToe			RHeel			
		X1	Y1	Z1	X2	Y2	Z2	X3	Y3	Z3	X4	Y4	Z4	X5	Y5	Z5	X6	Y6	Z6	X7	Y7	Z7	X8	Y8	Z8	X9	Y9	Z9	X10	Y10	Z10	X11	Y11	Z11	X12	Y12	Z12	X13	Y13	Z13	X14	Y14	Z14	X15	Y15	Z15	X16	Y16	Z16	X17	Y17	Z17	X18	Y18	Z18	X19	Y19	Z19	X20	Y20	Z20	

481	8.0000000	0.7905800	0.8451100	-0.0831900	0.7988200	0.8438700	0.0845900	0.9537000	0.6921100	0.1471900	1.3152000	0.7267400	0.0387600	0.8153200	0.8461700	-0.2517400	1.0530000	0.6473900	-0.3259400	1.3753700	0.7141200	-0.1586700	0.3459300	0.4467800	-0.1034000	0.3751700	0.4547400	0.0277700	0.7479800	0.2770600	0.1331000	0.5403500	-0.1849100	0.0884200	0.3525900	0.4507400	-0.2381400	0.7777600	0.2877400	-0.3074900	0.5689700	-0.1670400	-0.2751800	0.7707800	-0.2208100	-0.3185700	0.7092800	-0.2245800	-0.3563200	0.4793900	-0.2392500	-0.2606400	0.7211200	-0.2264900	0.2023300	0.6689600	-0.2336800	0.2320000	0.4757500	-0.2368200	0.0602100
482	8.0166667	0.7799700	0.8668500	-0.0858200	0.7901200	0.8678500	0.0886300	0.9787000	0.7158200	0.1558000	1.3211400	0.7482900	0.0473200	0.8068500	0.8744800	-0.2546900	1.0367000	0.6574300	-0.3269600	1.3668600	0.7333700	-0.1617300	0.3475700	0.4621500	-0.1043400	0.3767200	0.4732200	0.0270200	0.7397700	0.2786100	0.1368100	0.5406700	-0.1820100	0.0880300	0.3649700	0.4717200	-0.2335300	0.7694300	0.2872000	-0.3114600	0.5685600	-0.1664600	-0.2746800	0.7702200	-0.2176800	-0.3191400	0.7090500	-0.2211100	-0.3570500	0.4788700	-0.2354900	-0.2616900	0.7286700	-0.2237500	0.1982700	0.6600900	-0.2338400	0.2280500	0.4758200	-0.2364200	0.0600900
483	8.0333333	0.7795900	0.8890000	-0.0864200	0.7896100	0.8944100	0.0893100	0.9954400	0.7317300	0.1611500	1.3242400	0.7634400	0.0485600	0.8140800	0.8946700	-0.2590900	0.9892300	0.6524700	-0.3349400	1.3729200	0.7565700	-0.1574900	0.3562300	0.4881400	-0.1004400	0.3743600	0.4877900	0.0278400	0.7226400	0.2745600	0.1386700	0.5402500	-0.1775500	0.0884200	0.3614800	0.4945000	-0.2261900	0.7592500	0.2924300	-0.3154300	0.5690300	-0.1670000	-0.2752600	0.7790600	-0.2145300	-0.3152600	0.7091900	-0.2209800	-0.3557000	0.4794700	-0.2391300	-0.2607600	0.7289700	-0.2235800	0.1978500	0.6597000	-0.2339900	0.2285300	0.4755600	-0.2308500	0.0589200
484	8.0500000	0.7707000	0.9094100	-0.0901600	0.7897800	0.9077200	0.0885600	0.9782100	0.7542000	0.1556600	1.3284200	0.7886700	0.0429500	0.8049500	0.9244600	-0.2553700	1.0047300	0.6996500	-0.3436800	1.3619600	0.7814500	-0.1590000	0.3574800	0.5010800	-0.0998300	0.3719700	0.5023900	0.0284100	0.7216600	0.2818900	0.1384400	0.5405500	-0.1778600	0.0886300	0.3562000	0.5070500	-0.2289800	0.7332000	0.2867000	-0.3197400	0.5684900	-0.1665600	-0.2747200	0.7699600	-0.2178100	-0.3115400	0.7089500	-0.2211900	-0.3568800	0.4789100	-0.2355200	-0.2617100	0.7289500	-0.2236400	0.1982800	0.6701400	-0.2301500	0.2307500	0.4755800	-0.2335500	0.0593900
485	8.0666667	0.7691300	0.9396400	-0.0902100	0.7786500	0.9455500	0.0861500	0.9665400	0.7862900	0.1447200	1.2924600	0.8159300	0.0296900	0.8041300	0.9447100	-0.2557300	1.0061600	0.7103500	-0.3440300	1.3598600	0.8040000	-0.1578500	0.3556300	0.5132900	-0.1000300	0.3713100	0.5179600	0.0284600	0.7210600	0.2858000	0.1394200	0.5313300	-0.1806200	0.0928700	0.3726400	0.5220400	-0.2303200	0.7133800	0.2856200	-0.3193400	0.5690900	-0.1631100	-0.2746500	0.7610600	-0.2175600	-0.3070900	0.6909100	-0.2238800	-0.3565200	0.4890800	-0.2320200	-0.2573500	0.7288300	-0.2236700	0.1979100	0.6593200	-0.2339300	0.2286300	0.4753600	-0.2295400	0.0601100
486	8.0833333	0.7694800	0.9608100	-0.0903500	0.7699600	0.9625000	0.0900300	0.9510200	0.8112000	0.1467500	1.2974800	0.8356800	0.0385600	0.8040400	0.9680700	-0.2560500	0.9987500	0.7334400	-0.3571100	1.3611100	0.8246500	-0.1588500	0.3568800	0.5320200	-0.1011700	0.3741900	0.5373400	0.0271500	0.7206200	0.2858200	0.1390000	0.5316200	-0.1808700	0.0930500	0.3633500	0.5355000	-0.2255000	0.7146100	0.2894400	-0.3199600	0.5683500	-0.1705000	-0.2751600	0.7525500	-0.2239400	-0.3192400	0.6910200	-0.2237200	-0.3641500	0.4888700	-0.2322400	-0.2576000	0.7288300	-0.2236400	0.1981500	0.6601200	-0.2336200	0.2279600	0.4751400	-0.2263800	0.0593700
487	8.1000000	0.7594300	0.9911400	-0.0860000	0.7701800	0.9931700	0.0905700	0.9769000	0.8296000	0.1549700	1.3154100	0.8562400	0.0386400	0.8028000	0.9922400	-0.2557600	1.0278100	0.7765400	-0.3393400	1.3461600	0.8492800	-0.1575600	0.3660000	0.5543900	-0.0967600	0.3725400	0.5592400	0.0279400	0.7216500	0.2891700	0.1388200	0.5312300	-0.1806600	0.0929100	0.3810800	0.5576500	-0.2184100	0.7037500	0.2907600	-0.3154300	0.5689800	-0.1670000	-0.2752000	0.7702700	-0.2177700	-0.3115100	0.7090200	-0.2209600	-0.3556300	0.4789600	-0.2355700	-0.2613800	0.7289300	-0.2235300	0.1978400	0.6595500	-0.2338900	0.2284800	0.4751000	-0.2296800	0.0602000
488	8.1166667	0.7603800	1.0187700	-0.0863200	0.7791400	1.0181900	0.0932400	0.9440500	0.8495700	0.1510800	1.2882400	0.8797700	0.0286100	0.7941800	1.0186600	-0.2601100	1.0190300	0.7981000	-0.3440100	1.3521900	0.8674500	-0.1616500	0.3666300	0.5709900	-0.0964300	0.3704600	0.5738000	0.0283600	0.7204400	0.3034800	0.1384200	0.5315200	-0.1808700	0.0930400	0.3943700	0.5763200	-0.2213500	0.6955200	0.2963000	-0.3117700	0.5682600	-0.1665300	-0.2746000	0.7703400	-0.2176100	-0.3191600	0.7090800	-0.2246400	-0.3563500	0.4788300	-0.2355800	-0.2616400	0.7290500	-0.2234600	0.1981100	0.6686400	-0.2306100	0.2233000	0.4752200	-0.2307000	0.0588600
489	8.1333333	0.7502200	1.0341900	-0.0900000	0.7631200	1.0359200	0.0946700	0.9780600	0.8750500	0.1627800	1.3138500	0.8985600	0.0317200	0.7925700	1.0417500	-0.2599600	1.0260100	0.8211200	-0.3391100	1.3324200	0.8863200	-0.1570700	0.3859600	0.5858900	-0.0970300	0.3714800	0.5857300	0.0281200	0.7112300	0.3012900	0.1359800	0.5311900	-0.1804500	0.0928500	0.4018100	0.5865000	-0.2182100	0.6934700	0.2993500	-0.3109300	0.5593000	-0.1662700	-0.2706800	0.7707300	-0.2175300	-0.3191300	0.7092200	-0.2208800	-0.3557500	0.4788900	-0.2354400	-0.2613500	0.7294100	-0.2203300	0.1971700	0.6685100	-0.2276300	0.2232100	0.4754600	-0.2277400	0.0583200
490	8.1500000	0.7504000	1.0733000	-0.0900700	0.7579700	1.0731300	0.0869800	0.9286500	0.9031700	0.1525300	1.2585000	0.9219800	0.0234900	0.7840100	1.0696000	-0.2640800	1.0182500	0.8363600	-0.3444900	1.3130800	0.9130800	-0.1542900	0.3901900	0.6054100	-0.0898700	0.3856900	0.6071700	0.0304700	0.7102100	0.3084600	0.1355400	0.5314600	-0.1808000	0.0931000	0.4142000	0.6098800	-0.2143600	0.6938300	0.2996900	-0.3110700	0.5585600	-0.1658100	-0.2700400	0.7703700	-0.2175500	-0.3191900	0.7002800	-0.2239900	-0.3596400	0.4693100	-0.2351300	-0.2571100	0.7295600	-0.2204400	0.1976600	0.6711500	-0.2266700	0.2300800	0.4754700	-0.2275200	0.0582100
491	8.1666667	0.7488900	1.0821600	-0.0902700	0.7516900	1.0873900	0.0914500	0.9430400	0.9227300	0.1574500	1.2765300	0.9430400	0.0232100	0.7738100	1.0848100	-0.2682600	1.0168900	0.8719700	-0.3430000	1.2919300	0.9222700	-0.1714000	0.3876300	0.6181900	-0.0894900	0.3821500	0.6245000	0.0313600	0.7113900	0.3120100	0.1353600	0.5311600	-0.1804400	0.0928800	0.4014000	0.6165700	-0.2111600	0.6852700	0.3075400	-0.3077200	0.5591800	-0.1662600	-0.2706100	0.7615300	-0.2209000	-0.3153200	0.7002900	-0.2239800	-0.3594900	0.4695400	-0.2351300	-0.2567900	0.7290900	-0.2165200	0.1978800	0.6782100	-0.2237800	0.2260000	0.4754300	-0.2277100	0.0582400
492	8.1833333	0.7480200	1.1220600	-0.0901500	0.7500000	1.1248100	0.0911900	0.9435700	0.9467100	0.1580300	1.2878400	0.9542800	0.0284200	0.7643400	1.1208200	-0.2723500	1.0235700	0.8959000	-0.3397100	1.2747000	0.9412400	-0.1710200	0.3990400	0.6358100	-0.0851200	0.3929500	0.6376100	0.0351500	0.7105200	0.3194200	0.1348600	0.5317300	-0.1764900	0.0936500	0.4034200	0.6332400	-0.2096600	0.6856800	0.3081200	-0.3078500	0.5583900	-0.1698000	-0.2704800	0.7698800	-0.2143900	-0.3109700	0.7087600	-0.2211400	-0.3556800	0.4791500	-0.2353700	-0.2535800	0.7288700	-0.2166200	0.1981500	0.6783000	-0.2198000	0.2260700	0.4751500	-0.2264500	0.0593500
493	8.2000000	0.7377600	1.1372600	-0.0938200	0.7399100	1.1360000	0.0882800	0.9436100	0.9651400	0.1576400	1.2842600	0.9821100	0.0264000	0.7458800	1.1387400	-0.2806900	1.0157100	0.9274700	-0.3356500	1.2961900	0.9617000	-0.1822200	0.4178300	0.6542800	-0.0856200	0.4021400	0.6548400	0.0307600	0.7013600	0.3171900	0.1322300	0.5401100	-0.1731800	0.0890300	0.4110800	0.6471800	-0.2145500	0.6881000	0.3190900	-0.3089600	0.5492100	-0.1735500	-0.2670200	0.7705100	-0.2176500	-0.3190600	0.7004800	-0.2239900	-0.3595300	0.4792500	-0.2354100	-0.2532400	0.7291600	-0.2165000	0.1977100	0.6767200	-0.2172600	0.2185400	0.4750600	-0.2235100	0.0587900
494	8.2166667	0.7374100	1.1630600	-0.0937700	0.7310900	1.1610800	0.0842300	0.9334300	0.9942100	0.1550600	1.2656400	1.0037600	0.0261800	0.7539200	1.1647500	-0.2765200	1.0066000	0.9515000	-0.3398800	1.2741700	0.9828400	-0.1710900	0.4121200	0.6679600	-0.0825500	0.4198000	0.6715900	0.0409000	0.6997400	0.3210700	0.1320900	0.5314900	-0.1765700	0.0936100	0.4136100	0.6655400	-0.2143300	0.6787200	0.3201500	-0.3050000	0.5484500	-0.1731900	-0.2663800	0.7612500	-0.2209200	-0.3154100	0.7001000	-0.2241600	-0.3596200	0.4889500	-0.2320600	-0.2495700	0.7291900	-0.2165600	0.1979900	0.6773900	-0.2172000	0.2179600	0.4754400	-0.2275100	0.0582000
